<!DOCTYPE svg PUBLIC "-//W3C//DTD SVG 20010904//EN" "http://www.w3.org/TR/2001/REC-SVG-20010904/DTD/svg10.dtd">
<svg version="1.0" xmlns="http://www.w3.org/2000/svg" width="473px" height="852px" viewBox="0 0 4730 8520" preserveAspectRatio="xMidYMid meet">
<g id="layer1" fill="#ffffff" stroke="none">
 <path d="M3468 6660 c-40 -12 -84 -46 -107 -83 -30 -49 -41 -113 -56 -322 -10 -132 -20 -211 -35 -260 -12 -38 -74 -178 -139 -310 -126 -255 -154 -325 -154 -387 0 -62 25 -81 99 -76 94 6 180 62 339 222 135 135 198 219 265 353 113 226 133 573 42 748 -51 99 -153 146 -254 115z"/>
 </g>
<g id="layer2" fill="#e32951" stroke="none">
 <path d="M1820 8508 c-267 -28 -614 -150 -869 -304 -323 -196 -599 -502 -757 -840 -140 -298 -193 -578 -194 -1014 -1 -359 27 -592 105 -905 91 -363 220 -600 455 -836 274 -276 541 -389 920 -389 215 0 376 32 526 103 39 19 140 82 225 140 86 58 188 121 227 141 133 67 320 96 617 96 401 0 619 55 821 208 208 158 378 400 463 662 74 231 86 528 31 798 -90 438 -305 919 -568 1271 -100 134 -331 370 -447 458 -255 192 -551 334 -805 386 -175 36 -534 48 -750 25z m1787 -1873 c66 -28 101 -77 130 -180 21 -75 28 -249 14 -346 -37 -259 -132 -440 -346 -655 -147 -148 -236 -206 -327 -212 -70 -5 -81 2 -81 56 0 62 28 132 154 387 65 132 127 272 139 310 15 49 25 128 35 260 15 207 26 273 55 320 42 67 145 94 227 60z"/>
 <path d="M2536 4476 c-52 -19 -102 -70 -122 -123 -22 -56 -16 -142 26 -391 227 -1369 689 -2530 1363 -3425 161 -215 413 -494 471 -521 45 -21 147 -21 189 0 54 28 201 130 223 155 45 51 59 173 28 261 -19 57 -37 74 -145 135 -269 154 -543 439 -772 801 -405 639 -748 1605 -977 2750 -39 195 -54 252 -74 281 -52 74 -135 104 -210 77z"/>
 </g>

</svg>