<!DOCTYPE svg PUBLIC "-//W3C//DTD SVG 20010904//EN" "http://www.w3.org/TR/2001/REC-SVG-20010904/DTD/svg10.dtd">
<svg version="1.0" xmlns="http://www.w3.org/2000/svg" width="489px" height="869px" viewBox="0 0 4890 8690" preserveAspectRatio="xMidYMid meet">
<g id="layer1" fill="#ef3957" stroke="none">
 <path d="M1903 8674 c-382 -38 -837 -229 -1146 -482 -101 -83 -272 -261 -344 -359 -234 -315 -367 -673 -403 -1084 -13 -150 -13 -488 1 -659 19 -251 77 -544 151 -770 134 -413 445 -790 793 -964 211 -106 387 -141 659 -133 312 10 481 66 736 247 54 38 101 70 104 70 2 0 -7 -21 -21 -46 -40 -72 -41 -151 -3 -389 253 -1599 840 -2957 1676 -3877 187 -206 220 -228 344 -228 90 0 115 10 250 100 118 79 158 119 178 179 15 44 15 212 0 262 -18 60 -71 113 -172 173 -379 223 -685 594 -985 1193 -298 597 -558 1410 -731 2283 -52 265 -67 314 -120 373 -36 42 -121 87 -164 88 l-31 1 30 9 c73 22 169 31 445 39 162 5 330 14 374 20 180 26 369 101 496 198 94 71 258 245 322 343 108 163 175 324 220 526 29 132 32 477 5 621 -62 329 -215 745 -378 1032 -133 234 -251 392 -434 578 -310 318 -646 518 -1038 618 -199 50 -532 66 -814 38z m564 -190 c490 -64 965 -344 1303 -769 247 -312 455 -741 564 -1165 80 -316 81 -590 1 -855 -87 -288 -312 -573 -547 -691 -153 -77 -287 -99 -658 -109 -471 -12 -570 -41 -880 -256 -219 -152 -342 -199 -577 -221 -431 -39 -809 135 -1083 500 -88 118 -182 293 -230 427 -61 174 -128 486 -161 750 -17 131 -17 534 -1 650 70 500 256 894 564 1191 230 223 542 395 887 490 291 80 523 96 818 58z m236 -4035 c14 -6 30 -22 36 -35 6 -13 33 -138 61 -277 244 -1217 630 -2249 1083 -2893 210 -300 460 -543 710 -690 50 -30 97 -64 104 -77 18 -32 16 -108 -3 -136 -22 -31 -221 -161 -246 -161 -24 0 -155 125 -273 260 -325 375 -646 887 -885 1413 -333 737 -572 1586 -694 2467 -7 54 16 108 54 127 30 15 24 15 53 2z"/>
 <path d="M3506 6825 c-91 -35 -155 -115 -180 -225 -9 -38 -20 -143 -26 -234 -5 -90 -15 -188 -21 -218 -14 -64 -69 -189 -176 -398 -105 -204 -136 -298 -131 -392 4 -67 5 -72 45 -108 52 -49 104 -59 193 -36 83 21 154 63 259 151 219 184 385 433 447 670 21 79 28 132 31 251 10 279 -48 441 -184 521 -39 23 -60 27 -132 30 -58 2 -99 -2 -125 -12z m177 -205 c31 -25 53 -87 68 -196 14 -97 1 -247 -32 -363 -49 -181 -189 -385 -366 -536 -68 -58 -169 -122 -179 -113 -9 10 31 101 141 323 158 318 161 331 184 655 11 149 23 202 52 231 26 26 98 26 132 -1z"/>
 </g>

</svg>